<svg width="20" height="16" viewBox="0 0 20 16" fill="none" xmlns="http://www.w3.org/2000/svg">
<path d="M3.88485 3.23395C3.56778 2.99101 3.13326 3.0793 2.91433 3.43115C2.69539 3.783 2.77495 4.26518 3.09203 4.50812L8.1866 8.41163C9.41395 9.35201 11.0443 9.32249 12.2433 8.33813L16.9266 4.49343C17.2364 4.23914 17.3018 3.75434 17.0726 3.41059C16.8434 3.06686 16.4065 2.99436 16.0967 3.24865L11.4134 7.09333C10.694 7.68399 9.71581 7.70164 8.97944 7.13741L3.88485 3.23395Z" fill="#1b1b1b"/>
<path fill-rule="evenodd" clip-rule="evenodd" d="M3.48837 0C1.5618 0 0 1.73309 0 3.87097V12.129C0 14.2669 1.5618 16 3.48837 16H16.5116C18.4382 16 20 14.2669 20 12.129V3.87097C20 1.73309 18.4382 0 16.5116 0H3.48837ZM1.39535 3.87097C1.39535 2.58824 2.33243 1.54839 3.48837 1.54839H16.5116C17.6675 1.54839 18.6047 2.58824 18.6047 3.87097V12.129C18.6047 13.4117 17.6675 14.4516 16.5116 14.4516H3.48837C2.33243 14.4516 1.39535 13.4117 1.39535 12.129V3.87097Z" fill="#1b1b1b"/>
</svg>
